<?xml version="1.0" encoding="utf-8"?>
<!-- Generator: Adobe Illustrator 15.1.0, SVG Export Plug-In . SVG Version: 6.00 Build 0)  -->
<!DOCTYPE svg PUBLIC "-//W3C//DTD SVG 1.1//EN" "http://www.w3.org/Graphics/SVG/1.1/DTD/svg11.dtd">
<svg version="1.1" id="Layer_1" xmlns="http://www.w3.org/2000/svg" xmlns:xlink="http://www.w3.org/1999/xlink" x="0px" y="0px"
	 width="768.581px" height="526.915px" viewBox="0 0 768.581 526.915" enable-background="new 0 0 768.581 526.915"
	 xml:space="preserve">
<title>G</title>
<g id="graph4">
	<title>clusterP2</title>
	<polygon fill="none" stroke="#000000" points="35.916,467 35.916,216 563.916,216 563.916,467 	"/>
	<text transform="matrix(1 0 0 1 397.2375 226.4004)" font-family="'ArialMT'" font-size="8">com.fastframework.core</text>
</g>
<g id="graph5">
	<title>clusterP3</title>
	<polygon fill="none" stroke="#000000" points="42.916,169 42.916,12 706.916,12 706.916,169 	"/>
	<text transform="matrix(1 0 0 1 321.783 22.4004)" font-family="'ArialMT'" font-size="8">com.fastframework.navigation</text>
</g>
<g id="node7">
	<title>31</title>
	<polygon fill="none" stroke="#000000" points="147.916,415 147.916,355 215.916,355 215.916,415 	"/>
	<text transform="matrix(1 0 0 1 156.3469 365.4004)" font-family="'ArialMT'" font-size="8">SingletonError</text>
	<text transform="matrix(1 0 0 1 171.9055 374.4004)" font-family="'ArialMT'" font-size="8">{final}</text>
	<line fill="none" stroke="#000000" x1="147.916" y1="381" x2="215.916" y2="381"/>
	<line fill="none" stroke="#000000" x1="147.916" y1="398" x2="215.916" y2="398"/>
</g>
<g id="node8">
	<title>30</title>
	<polygon fill="none" stroke="#000000" points="246.416,438.5 246.416,351.5 539.416,351.5 539.416,438.5 	"/>
	<text transform="matrix(1 0 0 1 355.7908 361.9004)" font-family="'ArialMT'" font-size="8">EventDispatcherUtils</text>
	<text transform="matrix(1 0 0 1 382.9055 370.9004)" font-family="'ArialMT'" font-size="8">{final}</text>
	<line fill="none" stroke="#000000" x1="246.416" y1="377.5" x2="539.416" y2="377.5"/>
	<text transform="matrix(1 0 0 1 254.4158 387.9004)" font-family="'ArialMT'" font-size="8">$ - ins: EventDispatcherUtils</text>
	<line fill="none" stroke="#000000" x1="246.416" y1="394.5" x2="539.416" y2="394.5"/>
	<text transform="matrix(1 0 0 1 254.4158 404.9004)" font-family="'ArialMT'" font-size="8">$ + instance(): EventDispatcherUtils {final}</text>
	<text transform="matrix(1 0 0 1 254.4158 413.9004)" font-family="'ArialMT'" font-size="8">+ once(p0: IFASTEventDispatcher, p1: String, p2: Object, p3: Function): null</text>
	<text transform="matrix(1 0 0 1 254.4158 422.9004)" font-family="'ArialMT'" font-size="8">+ when(p0: IFASTEventDispatcher, p1: String, p2: Object, p3: Function): void</text>
	<text transform="matrix(1 0 0 1 254.4158 431.9004)" font-family="'ArialMT'" font-size="8">- onceHandler(p0: Function): Function</text>
</g>
<g id="node9">
	<title>26</title>
	<polygon fill="none" stroke="#000000" points="247.416,315 247.416,255 438.415,255 438.415,315 	"/>
	<text transform="matrix(1 0 0 1 303.5662 265.4004)" font-family="'ArialMT'" font-size="8">FASTEventDispatcher</text>
	<line fill="none" stroke="#000000" x1="247.416" y1="272" x2="438.415" y2="272"/>
	<line fill="none" stroke="#000000" x1="247.416" y1="289" x2="438.415" y2="289"/>
	<text transform="matrix(1 0 0 1 255.4158 299.4004)" font-family="'ArialMT'" font-size="8">+ once(p0: String, p1: Object, p2: Function): null</text>
	<text transform="matrix(1 0 0 1 255.4158 308.4004)" font-family="'ArialMT'" font-size="8">+ when(p0: String, p1: Object, p2: Function): null</text>
</g>
<g id="node10">
	<title>25</title>
	<polygon fill="none" stroke="#000000" points="44.416,311 44.416,259 229.416,259 229.416,311 	"/>
	<text transform="matrix(1 0 0 1 112.2297 269.4004)" font-family="'ArialMT'" font-size="8">&lt;&lt;interface&gt;&gt;</text>
	<text transform="matrix(1 0 0 1 96.4543 278.4004)" font-family="'ArialMT'" font-size="8">IFASTEventDispatcher</text>
	<line fill="none" stroke="#000000" x1="44.416" y1="285" x2="229.416" y2="285"/>
	<text transform="matrix(1 0 0 1 52.4158 295.4004)" font-family="'ArialMT'" font-size="8">once(p0: String, p1: Object, p2: Function): null</text>
	<text transform="matrix(1 0 0 1 52.4158 304.4004)" font-family="'ArialMT'" font-size="8">when(p0: String, p1: Object, p2: Function): null</text>
</g>
<g id="node12">
	<title>28</title>
	<polygon fill="none" stroke="#000000" points="525.416,147 525.416,51 698.416,51 698.416,147 	"/>
	<text transform="matrix(1 0 0 1 582.7869 61.4004)" font-family="'ArialMT'" font-size="8">NavigationEvent</text>
	<text transform="matrix(1 0 0 1 601.9055 70.4004)" font-family="'ArialMT'" font-size="8">{final}</text>
	<line fill="none" stroke="#000000" x1="525.416" y1="77" x2="698.416" y2="77"/>
	<text transform="matrix(1 0 0 1 533.4153 87.4004)" font-family="'ArialMT'" font-size="8">$ + CHANGE: String = &quot;change&quot; {read-only}</text>
	<text transform="matrix(1 0 0 1 533.4153 96.4004)" font-family="'ArialMT'" font-size="8">+ eventDispatcher: Object</text>
	<text transform="matrix(1 0 0 1 533.4153 105.4004)" font-family="'ArialMT'" font-size="8">+ isSuppress: Boolean</text>
	<text transform="matrix(1 0 0 1 533.4153 114.4004)" font-family="'ArialMT'" font-size="8">+ navKey: String</text>
	<text transform="matrix(1 0 0 1 533.4153 123.4004)" font-family="'ArialMT'" font-size="8">+ targetContainer: String</text>
	<line fill="none" stroke="#000000" x1="525.416" y1="130" x2="698.416" y2="130"/>
</g>
<g id="node13">
	<title>27</title>
	<polygon fill="none" stroke="#000000" points="178.916,160.5 178.916,37.5 506.915,37.5 506.915,160.5 	"/>
	<text transform="matrix(1 0 0 1 324.0154 47.9004)" font-family="'ArialMT'" font-size="8">Navigation</text>
	<text transform="matrix(1 0 0 1 332.9055 56.9004)" font-family="'ArialMT'" font-size="8">{final}</text>
	<line fill="none" stroke="#000000" x1="178.916" y1="63.5" x2="506.915" y2="63.5"/>
	<text transform="matrix(1 0 0 1 186.9158 73.9004)" font-family="'ArialMT'" font-size="8">$ - ins: Navigation</text>
	<text transform="matrix(1 0 0 1 186.9158 82.9004)" font-family="'ArialMT'" font-size="8">- navKey: String</text>
	<text transform="matrix(1 0 0 1 186.9158 91.9004)" font-family="'ArialMT'" font-size="8">- navStackRequests: Array</text>
	<line fill="none" stroke="#000000" x1="178.916" y1="98.5" x2="506.915" y2="98.5"/>
	<text transform="matrix(1 0 0 1 186.9158 108.9004)" font-family="'ArialMT'" font-size="8">$ + instance(): Navigation {final}</text>
	<text transform="matrix(1 0 0 1 186.9158 117.9004)" font-family="'ArialMT'" font-size="8">+ changeSection(p0: String, p1: String = &quot;&quot;, p2: Boolean = false, p3: Object = null): void</text>
	<text transform="matrix(1 0 0 1 186.9158 126.9004)" font-family="'ArialMT'" font-size="8">+ changeSections(p0: Array): void</text>
	<text transform="matrix(1 0 0 1 186.9158 135.9004)" font-family="'ArialMT'" font-size="8">+ getNavKey(): String</text>
	<text transform="matrix(1 0 0 1 186.9158 144.9004)" font-family="'ArialMT'" font-size="8">+ getNavStackRequests(): Array</text>
	<text transform="matrix(1 0 0 1 186.9158 153.9004)" font-family="'ArialMT'" font-size="8">+ nextSection(): void</text>
</g>
<g id="edge25">
	<title>27-&gt;26</title>
	<path fill="none" stroke="#000000" d="M342.915,160.51c0,77.15,0,18.4,0,83.891"/>
	<polygon fill="none" stroke="#000000" points="346.415,244.7 342.915,254.7 339.415,244.7 	"/>
</g>
<g id="node14">
	<title>24</title>
	<polygon fill="none" stroke="#000000" points="50.916,142.5 50.916,55.5 160.916,55.5 160.916,142.5 	"/>
	<text transform="matrix(1 0 0 1 73.8997 65.9004)" font-family="'ArialMT'" font-size="8">NavStackRequest</text>
	<text transform="matrix(1 0 0 1 95.9055 74.9004)" font-family="'ArialMT'" font-size="8">{final}</text>
	<line fill="none" stroke="#000000" x1="50.916" y1="81.5" x2="160.916" y2="81.5"/>
	<text transform="matrix(1 0 0 1 58.9158 91.9004)" font-family="'ArialMT'" font-size="8">+ eventDispatcher: Object</text>
	<text transform="matrix(1 0 0 1 58.9158 100.9004)" font-family="'ArialMT'" font-size="8">+ isSuppress: Boolean</text>
	<text transform="matrix(1 0 0 1 58.9158 109.9004)" font-family="'ArialMT'" font-size="8">+ navKey: String</text>
	<text transform="matrix(1 0 0 1 58.9158 118.9004)" font-family="'ArialMT'" font-size="8">+ targetContainer: String</text>
	<line fill="none" stroke="#000000" x1="50.916" y1="125.5" x2="160.916" y2="125.5"/>
	<text transform="matrix(1 0 0 1 58.9158 135.9004)" font-family="'ArialMT'" font-size="8">+ toString(): String</text>
</g>
</svg>
